<?xml version="1.0" encoding="utf-8"?>
<!-- Generator: Adobe Illustrator 25.0.0, SVG Export Plug-In . SVG Version: 6.00 Build 0)  -->
<svg version="1.1" xmlns="http://www.w3.org/2000/svg" xmlns:xlink="http://www.w3.org/1999/xlink" x="0px" y="0px"
	 viewBox="0 0 170.24 168.33" style="enable-background:new 0 0 170.24 168.33;" xml:space="preserve">
<style type="text/css">
	.st0{fill:#244538;}
	.st1{fill:#EBEBEB;}
	.st2{fill:#C2D1C7;}
	.st3{fill:none;stroke:#EBEBEB;stroke-width:7.3421;stroke-miterlimit:10;}
	.st4{fill:none;stroke:#FF8700;stroke-width:6;stroke-miterlimit:10;}
	.st5{fill:#141213;}
	.st6{fill:#FFFFFF;}
	.st7{fill:#FF8700;}
	.st8{fill:none;stroke:#244538;stroke-width:7.3421;stroke-miterlimit:10;}
	.st9{fill:#262527;}
	.st10{fill:#E7E9E9;}
	.st11{fill:none;stroke:#EBEBEB;stroke-width:11.4981;stroke-miterlimit:10;}
	.st12{fill:none;stroke:#244538;stroke-width:11.4981;stroke-miterlimit:10;}
</style>
<g id="Background">
</g>
<g id="Layer_1">
	<g>
		<g>
			<path class="st7" d="M85.12,42.35c-3.57,0-6.87-1.01-6.87-8.32V7.42h13.73v26.61C91.99,41.35,88.69,42.35,85.12,42.35z"/>
			<path class="st7" d="M48.74,63.36c-1.78,3.09-4.31,5.44-10.64,1.79L15.06,51.84l6.87-11.89l23.05,13.31
				C51.3,56.91,50.53,60.27,48.74,63.36z"/>
			<path class="st7" d="M48.74,105.36c1.78,3.09,2.56,6.45-3.77,10.11l-23.05,13.31l-6.87-11.89l23.05-13.31
				C44.44,99.92,46.96,102.27,48.74,105.36z"/>
			<path class="st7" d="M121.5,105.36c1.78-3.09,4.31-5.44,10.64-1.79l23.05,13.31l-6.87,11.89l-23.05-13.31
				C118.94,111.81,119.71,108.45,121.5,105.36z"/>
			<path class="st7" d="M121.5,63.36c-1.78-3.09-2.56-6.45,3.77-10.11l23.05-13.31l6.87,11.89l-23.05,13.31
				C125.8,68.8,123.28,66.44,121.5,63.36z"/>
			<g>
				<path class="st0" d="M133.91,84.35c2.4-0.73,4.88-1.8,7.43-3.27l23.05-13.31l-6.16-10.67l-23.05,13.31
					c-8.43,4.87-15.06,2.71-18.94-4.01s-2.44-13.54,5.99-18.41l23.05-13.31l-6.16-10.67l-23.05,13.31
					c-2.55,1.47-4.72,3.08-6.55,4.79c0.57-2.44,0.88-5.13,0.88-8.07V7.42H98.07v26.61c0,9.74-5.18,14.4-12.95,14.4
					c-7.77,0-12.95-4.66-12.95-14.4V7.42H59.85v26.61c0,2.94,0.3,5.63,0.87,8.07c-1.83-1.72-4-3.33-6.55-4.8L31.13,24.01
					l-6.16,10.67l23.05,13.31c8.43,4.87,9.88,11.68,6,18.41s-10.51,8.88-18.94,4.01L12.02,57.1L5.86,67.78l23.05,13.31
					c2.55,1.47,5.03,2.55,7.43,3.28c-2.4,0.73-4.88,1.8-7.43,3.27L5.86,100.94l6.16,10.67l23.05-13.31
					c8.43-4.87,15.06-2.71,18.94,4.01s2.44,13.54-6,18.41l-23.05,13.31l6.16,10.67l23.05-13.31c2.56-1.48,4.75-3.1,6.59-4.83
					c-0.6,2.49-0.92,5.22-0.92,8.22v26.61h12.32V134.8c0-9.74,5.18-14.4,12.95-14.4c7.77,0,12.95,4.66,12.95,14.4v26.61h12.32V134.8
					c0-3-0.32-5.74-0.91-8.23c1.84,1.73,4.02,3.35,6.58,4.83l23.05,13.31l6.16-10.67l-23.05-13.31c-8.43-4.87-9.88-11.68-5.99-18.41
					s10.51-8.88,18.94-4.01l23.05,13.31l6.16-10.67l-23.05-13.31C138.79,86.16,136.31,85.08,133.91,84.35z M106.28,96.57
					c-3.55,6.15-4.87,12.32-3.74,18.02c-4.37-3.78-10.35-5.68-17.42-5.68c-7.06,0-13.03,1.92-17.39,5.7
					c1.13-5.7-0.21-11.87-3.76-18.04c-3.52-6.1-8.16-10.3-13.6-12.2c5.44-1.9,10.07-6.12,13.6-12.23c3.52-6.1,4.85-12.22,3.77-17.88
					c4.36,3.77,10.33,5.66,17.39,5.66c7.04,0,13-1.91,17.36-5.68c-1.08,5.66,0.27,11.78,3.79,17.89c3.52,6.1,8.16,10.3,13.6,12.2
					C114.43,86.24,109.8,90.46,106.28,96.57z"/>
				<path class="st7" d="M85.12,126.49c3.57,0,6.87,1.01,6.87,8.32v26.61H78.25V134.8C78.25,127.49,81.55,126.49,85.12,126.49z"/>
			</g>
		</g>
	</g>
</g>
<g id="Isolation_Mode_16_">
</g>
</svg>
